<svg height="512pt" viewBox="0 0 512 512" width="512pt" xmlns="http://www.w3.org/2000/svg"><path d="m512 256c0 141.386719-114.613281 256-256 256s-256-114.613281-256-256 114.613281-256 256-256 256 114.613281 256 256zm0 0" fill="#d88cff"/><path d="m509.046875 295-111.273437-111.273438-16.613282 56.90625-30.851562-39.953124-86-86.453126-16.617188 28.289063-10.082031 90.542969-87.769531-30.015625-19-19.316407-16.613282 74.765626 84.972657 84.976562-84.394531 54.304688 112.632812 112.632812c9.378906 1.039062 18.90625 1.59375 28.5625 1.59375 128.125 0 234.265625-94.125 253.046875-217zm0 0" fill="#be40ff"/><path d="m147.453125 250.183594h16.613281v24.921875h-16.613281zm0 0" fill="#367a9f"/><path d="m347.933594 250.183594h16.613281v24.921875h-16.613281zm0 0" fill="#2b5c74"/><path d="m309.902344 297.535156h-45.59375l-41.535156 50.121094 41.535156 50.117188h132.886718zm0 0" fill="#203f49"/><path d="m247.691406 297.535156h-45.59375l-87.292968 100.238282h132.886718l8.308594-16.890626v-71.992187zm0 0" fill="#3e575f"/><path d="m247.691406 297.535156h16.617188v33.503906h-16.617188zm0 0" fill="#fff"/><path d="m247.691406 364.269531h16.617188v33.503907h-16.617188zm0 0" fill="#fff"/><path d="m125.300781 207.933594 5.539063 50.558594h125.160156v-76.609376zm0 0" fill="#4097ca"/><g fill="#367a9f"><path d="m256 181.882812v76.609376h125.160156l5.539063-50.558594zm0 0"/><path d="m247.691406 114.226562h16.617188v35.996094h-16.617188zm0 0"/><path d="m114.226562 183.726562h16.613282v74.765626h-16.613282zm0 0"/></g><path d="m381.160156 183.726562h16.613282v74.765626h-16.613282zm0 0" fill="#2b5c74"/><path d="m256 141.914062-27.691406 86.117188 86.117187-27.6875c0-32.21875-26.207031-58.429688-58.425781-58.429688zm0 0" fill="#4bb4f5"/><path d="m256 141.914062c-32.21875 0-58.425781 26.210938-58.425781 58.429688l58.425781 27.6875zm0 0" fill="#7acbfc"/><path d="m256 280.921875c32.21875 0 58.425781-26.210937 58.425781-58.429687v-22.148438h-58.425781l-16.613281 40.289062zm0 0" fill="#2b5c74"/><path d="m197.574219 200.34375v22.148438c0 32.21875 26.207031 58.429687 58.425781 58.429687v-80.578125zm0 0" fill="#367a9f"/></svg>